<svg width="448" height="428" viewBox="0 0 448 428" fill="none" xmlns="http://www.w3.org/2000/svg">
<path d="M203.701 14.6236C210.035 -4.87244 237.617 -4.87244 243.952 14.6236L282.283 132.595C285.116 141.314 293.241 147.217 302.408 147.217H426.451C446.95 147.217 455.473 173.449 438.889 185.498L338.537 258.408C331.12 263.797 328.016 273.348 330.849 282.067L369.181 400.038C375.515 419.534 353.201 435.747 336.617 423.697L236.264 350.787C228.848 345.399 218.805 345.399 211.388 350.787L111.036 423.697C94.4512 435.747 72.1371 419.534 78.4718 400.038L116.803 282.067C119.636 273.348 116.532 263.797 109.116 258.408L8.76339 185.498C-7.82097 173.449 0.702268 147.217 21.2017 147.217H145.244C154.412 147.217 162.537 141.314 165.369 132.595L203.701 14.6236Z" fill="#FDCCE3"/>
</svg>
